<svg xmlns="http://www.w3.org/2000/svg" viewBox="0 0 282.92 355.19"><defs><style>.cls-1{fill:#ded8db;}.cls-2{fill:#ffdde6;}.cls-3{fill:#fff;}.cls-4{fill:#f5f2d0;}.cls-5{fill:#8f784f;}.cls-6{fill:#f9c580;}.cls-7{fill:#f2b0a0;}.cls-8{fill:#ebe5ad;}.cls-9{fill:#663829;}</style></defs><g id="Слой_2" data-name="Слой 2"><g id="OBJECTS"><ellipse class="cls-1" cx="150.49" cy="311.13" rx="109.77" ry="20.83"/><circle class="cls-2" cx="141.46" cy="141.46" r="141.46" transform="translate(-58.59 141.46) rotate(-45)"/><path class="cls-3" d="M104.49,47.35l0,0Q104.57,47.46,104.49,47.35Z"/><path class="cls-3" d="M109.8,35.53h-.13l-.09,0-.32,0c-.29-.06-.58-.12-.87-.2a14.73,14.73,0,0,1-1.63-.52l-.3-.11-.28-.12-.69-.32a14.55,14.55,0,0,1-1.47-.87,13.47,13.47,0,0,1-2.36-2c-.37-.39-.71-.8-1.07-1.21A2.39,2.39,0,0,0,99,29a.82.82,0,0,0-.66.33.55.55,0,0,0-.6.16c-.45.47-.32,1.08-.23,1.66a10.81,10.81,0,0,1,.12,1.61,11.39,11.39,0,0,1-.56,3.37,12.3,12.3,0,0,1-1.36,3,9,9,0,0,1-.88,1.2,3.73,3.73,0,0,0-1.21,1.84,1.34,1.34,0,0,0,1.27,1.67,2.44,2.44,0,0,0,1.3-.45,4.89,4.89,0,0,0,1.27-.12c.05,0,.07,0,.07,0h.11l.32,0c.24,0,.48,0,.72,0a7.32,7.32,0,0,1,.81,0h0l.07,0,.39.08c.24.05.47.11.7.18a2.76,2.76,0,0,1,.54.21,5,5,0,0,1,1.93,1.49,1.07,1.07,0,0,1,.14.16l.12.16a6.53,6.53,0,0,1,.35.56c.12.21.24.42.34.64l.12.26a.62.62,0,0,0,.17.28l.09.11A1.42,1.42,0,0,0,106,48a1.4,1.4,0,0,0,1-1.34A2.64,2.64,0,0,0,107,46a10.45,10.45,0,0,1-.11-2.25s0-.2,0-.26,0-.14,0-.16c0-.19.06-.39.11-.58s.11-.43.18-.64,0-.14.07-.21l.07-.14a7.25,7.25,0,0,1,.57-1l0,0,.13-.17c.13-.15.27-.29.41-.43l.39-.36.12-.1.13-.1a8.12,8.12,0,0,1,1-.58,1.22,1.22,0,0,0,.54-.49,1.82,1.82,0,0,0,.73-1.37A1.66,1.66,0,0,0,109.8,35.53Z"/><path class="cls-3" d="M40.59,133.84l0,0C40.64,133.9,40.65,133.91,40.59,133.84Z"/><path class="cls-3" d="M45.91,122h-.13l-.09,0-.32,0c-.29-.06-.59-.12-.87-.2a14.73,14.73,0,0,1-1.63-.52l-.3-.11-.28-.12-.69-.32a14.55,14.55,0,0,1-1.47-.87,13.4,13.4,0,0,1-2.36-2c-.37-.39-.72-.81-1.07-1.22a2.38,2.38,0,0,0-1.56-1.07.79.79,0,0,0-.66.32.55.55,0,0,0-.6.16c-.45.47-.32,1.08-.23,1.66a10.81,10.81,0,0,1,.12,1.61,11.39,11.39,0,0,1-.56,3.37,12.68,12.68,0,0,1-1.36,3,9,9,0,0,1-.88,1.2,3.77,3.77,0,0,0-1.21,1.84A1.35,1.35,0,0,0,31,130.32a2.36,2.36,0,0,0,1.3-.46,4.49,4.49,0,0,0,1.27-.12h.18l.32,0c.24,0,.48,0,.72,0a7,7,0,0,1,.8,0h.09l.39.08c.24.05.47.11.7.18a3.4,3.4,0,0,1,.54.21,5,5,0,0,1,1.93,1.49l.14.16.12.16c.12.18.24.37.35.56s.23.42.34.64l.12.26a.62.62,0,0,0,.17.28l.08.11a1.44,1.44,0,0,0,1.55.61,1.4,1.4,0,0,0,1-1.34,2.64,2.64,0,0,0-.08-.62,9.85,9.85,0,0,1-.11-2.25s0-.2,0-.26,0-.14,0-.16c0-.19.06-.38.11-.58s.11-.43.18-.64.05-.14.07-.21,0-.09.07-.14a7.25,7.25,0,0,1,.57-1l0,0a1,1,0,0,1,.13-.16c.13-.15.27-.3.41-.44l.39-.36.12-.1.13-.09a7.13,7.13,0,0,1,1-.59,1.28,1.28,0,0,0,.54-.49,1.82,1.82,0,0,0,.73-1.37A1.66,1.66,0,0,0,45.91,122Z"/><path class="cls-3" d="M259.56,118.67s0,0,0,0S259.61,118.74,259.56,118.67Z"/><path class="cls-3" d="M264.87,106.85h-.12l-.1,0-.32-.06c-.29-.05-.58-.12-.87-.19a16.22,16.22,0,0,1-1.63-.52l-.3-.12-.28-.11c-.23-.1-.46-.21-.68-.33a12.93,12.93,0,0,1-1.48-.86,13.91,13.91,0,0,1-2.36-2c-.37-.39-.71-.8-1.06-1.21a2.41,2.41,0,0,0-1.57-1.08.84.84,0,0,0-.66.33.53.53,0,0,0-.59.16c-.46.47-.33,1.07-.24,1.66a10.79,10.79,0,0,1,.13,1.6,11.1,11.1,0,0,1-.57,3.38,12.3,12.3,0,0,1-1.36,3,8.18,8.18,0,0,1-.87,1.2,3.68,3.68,0,0,0-1.22,1.84,1.34,1.34,0,0,0,1.28,1.67,2.4,2.4,0,0,0,1.29-.45,4.89,4.89,0,0,0,1.27-.12l.08,0h.1l.32,0q.36,0,.72,0a7.32,7.32,0,0,1,.81,0h0l.06,0,.39.07.7.19a2.76,2.76,0,0,1,.54.21,5.11,5.11,0,0,1,1.94,1.48l.13.17a1.11,1.11,0,0,1,.12.16,4.62,4.62,0,0,1,.35.55c.12.21.24.43.34.65a2.06,2.06,0,0,1,.12.26.75.75,0,0,0,.18.28l.08.11a1.38,1.38,0,0,0,2.56-.73,4.2,4.2,0,0,0-.08-.62,9.91,9.91,0,0,1-.12-2.25s0-.2,0-.27a1,1,0,0,1,0-.15,5.4,5.4,0,0,1,.1-.58c.05-.22.11-.43.18-.64l.08-.21.06-.14a7.36,7.36,0,0,1,.57-1l0,0a2.09,2.09,0,0,1,.14-.17,5.51,5.51,0,0,1,.41-.43,4.27,4.27,0,0,1,.38-.36.64.64,0,0,1,.13-.1l.13-.1a7.07,7.07,0,0,1,1-.58,1.27,1.27,0,0,0,.53-.5,1.76,1.76,0,0,0,.74-1.36A1.66,1.66,0,0,0,264.87,106.85Z"/><path class="cls-3" d="M200.59,51.91h0C200.62,52,200.62,52,200.59,51.91Z"/><path class="cls-3" d="M203.82,44.72h-.13l-.19,0-.54-.11c-.33-.09-.66-.2-1-.32l-.18-.07-.17-.07-.42-.2a10,10,0,0,1-.9-.52,8.65,8.65,0,0,1-1.43-1.25c-.23-.23-.44-.49-.65-.74a1.49,1.49,0,0,0-1-.65.51.51,0,0,0-.4.2.32.32,0,0,0-.36.09c-.28.29-.2.66-.14,1a6.33,6.33,0,0,1,.07,1,6.84,6.84,0,0,1-.34,2.06,7.74,7.74,0,0,1-.83,1.83,5.69,5.69,0,0,1-.53.73,2.22,2.22,0,0,0-.74,1.12.82.82,0,0,0,.77,1,1.42,1.42,0,0,0,.79-.28,2.91,2.91,0,0,0,.78-.07h.3a3.25,3.25,0,0,1,.44,0,4,4,0,0,1,.49,0h.05l.24.05a3.39,3.39,0,0,1,.43.11,1.74,1.74,0,0,1,.32.13,3.06,3.06,0,0,1,1.18.9l.09.1s.06.08.07.1a3.87,3.87,0,0,1,.21.34l.21.39.07.16a.45.45,0,0,0,.11.17l.05.06a.88.88,0,0,0,.94.38.87.87,0,0,0,.62-.82c0-.13,0-.25-.05-.38a5.65,5.65,0,0,1-.07-1.37s0-.12,0-.16v-.09c0-.12,0-.24.07-.36a2.85,2.85,0,0,1,.11-.39l0-.12,0-.09a4.36,4.36,0,0,1,.35-.59l0,0,.08-.1.25-.26a2.5,2.5,0,0,1,.24-.22l.07-.06.08-.06a3.88,3.88,0,0,1,.63-.35.82.82,0,0,0,.33-.31,1.09,1.09,0,0,0,.45-.83A1,1,0,0,0,203.82,44.72Z"/><path class="cls-4" d="M270,343.06a28.76,28.76,0,0,1-16.17,8.53c-12.58,2.21-25.53-3.09-35.52-10.47A65.73,65.73,0,0,1,195.6,310a1.69,1.69,0,0,0-2.24-.83,1.73,1.73,0,0,0-.84,2.24c.11.33.24.64.35,1-1.55.48-3.07,1.14-4.63,1.6a49.21,49.21,0,0,1-6,1.42,48.51,48.51,0,0,1-6.36.7,21.08,21.08,0,0,1-2.38,0,6.26,6.26,0,0,1-1.14-.16c1-4.46,1.84-8.95,2.52-13.47,1.57-10.28,2.11-21-.7-31.15-1.16-4.17-2.82-9.14-7-11.13-4.84-2.31-9.43,1.52-12.06,5.32a40.26,40.26,0,0,0-6.91,20,25,25,0,0,0,0,3.67c.12,1.19.48,2.38.72,3.56.17.82,1.5.84,1.51,0,0-1.23.23-2.39.35-3.61s.17-2.42.3-3.63a41.37,41.37,0,0,1,1.33-6.79A34.94,34.94,0,0,1,158.75,266c1.26-1.51,3.09-3.17,5.19-3.21a5.15,5.15,0,0,1,4.09,2.38c2.48,3.26,3.36,7.94,4,11.88,1.54,9.25.61,18.72-1,27.91-.62,3.65-1.3,7.33-2.12,11a1.12,1.12,0,0,0-.21.88c-.15.63-.29,1.27-.45,1.91-1.09,4.25-2.93,9-7.14,11-3.67,1.77-7.8.25-10.66-2.35a19.35,19.35,0,0,1-4.07-5.73c-1.11-2.24-1.84-4.64-3-6.86-.75-1.43-3.2-.84-2.83.87a25.36,25.36,0,0,0,.88,3.11c-2.1-.22-4.2-.38-6.3-.55a146.43,146.43,0,0,1-35.28-7,113.06,113.06,0,0,1-16.5-7.05c-16.06-8.47-30.22-21.28-38.68-37.48-8.35-16-10.63-34.34-9.33-52.17a170.83,170.83,0,0,1,12.47-52A115.3,115.3,0,0,1,60.25,139.5a87.23,87.23,0,0,1,16.89-17.86c.17.33.34.65.52,1a44.65,44.65,0,0,0,6.55,8.74,63.32,63.32,0,0,0,8.42,7.79c1.45,1.05,3.36-1,2.13-2.34-1.42-1.54-3.06-2.87-4.59-4.31s-2.84-2.74-4.16-4.2A37.37,37.37,0,0,1,79.6,119a21.93,21.93,0,0,1-2.12-11.23,1.33,1.33,0,0,0,.58-1.09,1.17,1.17,0,0,0-.33-.77,18.67,18.67,0,0,1,1.45-4.41,26.77,26.77,0,0,1,4-6,59.91,59.91,0,0,1,7.42-7c5.66-4.67,11.57-9.06,17.58-13.27,3-2.13,6.12-4.21,9.24-6.22l4.85-3.12c1.56-1,3-2.12,4.48-3.21a1,1,0,0,0-.48-1.69c.49-.92,1-1.82,1.49-2.71,1.16-2,2.39-4,3.7-5.9A91.56,91.56,0,0,1,139,42.8l7,10,4.14,5.82c.72,1,1.42,2.07,2.17,3.09-.92-.06-1.83-.09-2.76-.09a18.23,18.23,0,0,0-4.78.41c-1,.3-1.62,2.1-.24,2.43a30.64,30.64,0,0,0,5.33.5c1.67.1,3.36.17,5,.31,2.51.23,5,.54,7.52,1,.87.14,1.75.31,2.62.48a96.26,96.26,0,0,1,30,11.44c1.24.73,2.47,1.49,3.69,2.27A97.08,97.08,0,0,1,212.93,91.6c2.21,2.11,4.35,4.3,6.36,6.59,1,1.14,2,2.3,3,3.47a18.08,18.08,0,0,0,3.11,3.25c.77.59,1.53-.33,1.3-1.09A16,16,0,0,0,224,99.2l-.29-.37,9.51-3c1.5-.47,3-1,4.54-1.41.22-.06,1.09-.33,1.32-.13s0,.91-.06,1.19c-.94,3.23-2.25,6.4-3.35,9.58-.53,1.52-1.05,3.05-1.58,4.58-.06.18-.13.35-.19.53a19.58,19.58,0,0,0-1.32,4.43,1.34,1.34,0,0,0,.78,1.34c-.12,1.16-.21,2.33-.3,3.49-.22,3.1-.32,6.21-.32,9.32a140.31,140.31,0,0,0,1.09,16.89c.07.67.16,1.34.24,2,.54,4.69,1,9.43.3,14.12a21.39,21.39,0,0,1-3,8.44,14.36,14.36,0,0,1-3,3.37,12.85,12.85,0,0,1-5.7,2.72,10.88,10.88,0,0,1-3.12.16c-1.09-.11-2.1-.43-3.2-.44s-2,1.26-1.14,2.16a5.7,5.7,0,0,0,2.77,1.47,34.17,34.17,0,0,0,2.76,3.78q1.52,2,3,4,2.81,3.82,5.25,7.88a105.59,105.59,0,0,1,15,49.32c.14,2.85.15,5.72.05,8.58-.05,1.53-.13,3.06-.22,4.59A15.53,15.53,0,0,0,244,262a1.06,1.06,0,0,0,2,.19,14.15,14.15,0,0,0,1.1-4.95c0-.17,0-.34,0-.51a98.12,98.12,0,0,1,8.88-8.78c1.36-1.13,3.08-2.92,4.91-3.19,1.39-.21,2.31.84,2.88,2,1.3,2.64,1.41,5.95,1.56,8.83a53.54,53.54,0,0,1-.39,9.64,56,56,0,0,1-5.76,18.46,53.58,53.58,0,0,1-5.24,8.15c-2.09,2.68-5,5.66-8.62,5.78-3,.1-5.69-1.84-7.44-4.13-2.46-3.22-3-7.21-4.36-10.92-.62-1.74-3.26-.79-3,.92a28.88,28.88,0,0,0,.74,3.36,15.29,15.29,0,0,1-4,4.08c-2.08,1.46-4.22,2.84-6.35,4.26l-6.9,4.62a18.41,18.41,0,0,1-2.89,1.65,24,24,0,0,1-2.67.63c-.52-1.25-1-2.55-1.38-3.87a1,1,0,0,0-1.87.3,20.64,20.64,0,0,0,1,4.67,29.35,29.35,0,0,0,1.53,3.7c5.08,10.26,15.79,16.88,26.94,18.8a54.54,54.54,0,0,0,19.15-.5c6.07-1.1,13.41-2.5,18.44,2.17S273.83,338.92,270,343.06Z"/><path class="cls-4" d="M70.48,96.8s0,0,0,0S70.51,96.7,70.48,96.8Z"/><path class="cls-4" d="M54.5,292.61l0,0Z"/><path class="cls-5" d="M162.38,66.19c-1.28,6.61-4.13,13-9,17.6-5.82,5.38-13.83,7.59-21.54,9.43C120.28,96,108.5,98.3,96.67,97.7a61.81,61.81,0,0,1-13.5-2.16,59.91,59.91,0,0,1,7.42-7c5.66-4.67,11.57-9.06,17.58-13.27,3-2.13,6.12-4.21,9.24-6.22l4.85-3.12c1.56-1,3-2.12,4.48-3.21a1,1,0,0,0-.48-1.69c.49-.92,1-1.82,1.49-2.71,1.16-2,2.39-4,3.7-5.9A91.56,91.56,0,0,1,139,42.8l7,10,4.14,5.82c.72,1,1.42,2.07,2.17,3.09-.92-.06-1.83-.09-2.76-.09a18.23,18.23,0,0,0-4.78.41c-1,.3-1.62,2.1-.24,2.43a30.64,30.64,0,0,0,5.33.5c1.67.1,3.36.17,5,.31C157.37,65.45,159.88,65.76,162.38,66.19Z"/><path class="cls-6" d="M234.35,161.81a21.39,21.39,0,0,1-3,8.44,28.44,28.44,0,0,1-3.57-.26,62.92,62.92,0,0,1-40.93-23.09c-3.81-4.81-7-11-5.25-16.87,1.62-5.4,6.93-8.75,12-11.16,9.69-4.58,28-12.24,40.27-8.66a19.58,19.58,0,0,0-1.32,4.43,1.34,1.34,0,0,0,.78,1.34c-.12,1.16-.21,2.33-.3,3.49-.22,3.1-.32,6.21-.32,9.32a140.31,140.31,0,0,0,1.09,16.89C234.44,151,235.16,156.45,234.35,161.81Z"/><path class="cls-5" d="M239,95.52c-.94,3.23-2.25,6.4-3.35,9.58-.53,1.52-1.05,3.05-1.58,4.58-.06.18-.13.35-.19.53a19.58,19.58,0,0,0-1.32,4.43,1.34,1.34,0,0,0,.78,1.34c-.12,1.16-.21,2.33-.3,3.49-.22,3.1-.32,6.21-.32,9.32a140.31,140.31,0,0,0,1.09,16.89c.07.67.16,1.34.24,2a8.28,8.28,0,0,1-.87.12c-3.61.31-7-1.53-10.06-3.55A65.81,65.81,0,0,1,195,78.11c1.24.73,2.47,1.49,3.69,2.27A97.08,97.08,0,0,1,212.93,91.6c2.21,2.11,4.35,4.3,6.36,6.59,1,1.14,2,2.3,3,3.47a18.08,18.08,0,0,0,3.11,3.25c.77.59,1.53-.33,1.3-1.09A16,16,0,0,0,224,99.2l-.29-.37,9.51-3c1.5-.47,3-1,4.54-1.41.22-.06,1.09-.33,1.32-.13S239.07,95.24,239,95.52Z"/><path class="cls-7" d="M131.44,113.15a4.38,4.38,0,0,0-.42-1.84,5.34,5.34,0,0,0-1.77-2.34c-2.1-1.62-5.55-2.77-7.9-1a4.07,4.07,0,0,0-1.6,2.54,3.49,3.49,0,0,0-.4,1.67,4,4,0,0,0,2.18,3.29,13.92,13.92,0,0,0,1.51.72,12.72,12.72,0,0,0,2.14.77,5.65,5.65,0,0,0,4.17-.48A4,4,0,0,0,130,116,3.5,3.5,0,0,0,131.44,113.15Z"/><path class="cls-7" d="M189.53,143.49c-.08-.26-.17-.52-.27-.76a6.16,6.16,0,0,0-2.79-3.18,11.44,11.44,0,0,0-2.73-2.48,4.82,4.82,0,0,0-3.56-.68,4.53,4.53,0,0,0-2.74,2c-1.3,2-.83,4.68.24,6.66a9.14,9.14,0,0,0,4.1,3.87c.36.16.73.3,1.11.43a5.48,5.48,0,0,0,4.18.22,6,6,0,0,0,.89-.33,3.88,3.88,0,0,0,2-2.63A5.05,5.05,0,0,0,189.53,143.49Z"/><path class="cls-4" d="M147.74,61.93c-2.81-4.36-5.87-8.57-8.86-12.81a1.54,1.54,0,0,0-2.63,0,31.6,31.6,0,0,0-3.39,12.28,1.29,1.29,0,0,0,.42,1.07.61.61,0,0,0,.07,1.15,29.92,29.92,0,0,0,6.56.29c2.23,0,4.44,0,6.67.05A1.36,1.36,0,0,0,147.74,61.93Z"/><path class="cls-4" d="M235,99.39c-.86-1.53-3.1-1.22-4.54-1a18.37,18.37,0,0,0-4.83,1.3l-.3-.21a.92.92,0,0,0-1.34,1,6,6,0,0,0,.57,1.35c.22.35.45.68.7,1l1.58,2.1,3.17,4.21a1.43,1.43,0,0,0,1.18.67,1.34,1.34,0,0,0,1.17-.67,33.14,33.14,0,0,0,2-4.58c.27-.79.5-1.58.7-2.39A3.57,3.57,0,0,0,235,99.39Z"/><path class="cls-8" d="M163.6,117.24a30.48,30.48,0,0,0-3.14-1.68,26.39,26.39,0,0,0-3.29-1.29,22.06,22.06,0,0,0-3.62-.6c-.79-.09-.87,1.12-.18,1.34,1.08.34,2.1.81,3.15,1.22s2,.78,3,1.26a28.19,28.19,0,0,1,2.85,1.57c.85.52,2,1.53,3.05,1.17a.51.51,0,0,0,.38-.5C165.9,118.54,164.48,117.77,163.6,117.24Z"/><path class="cls-8" d="M161.7,114.68a2.53,2.53,0,0,0-.94-.51,4.57,4.57,0,0,0-1.83-.29c-.33,0-.44.54-.08.6a5.45,5.45,0,0,1,1.52.56c.24.12.46.3.7.42l.39.17a2.32,2.32,0,0,0,.44.16.26.26,0,0,0,.32-.32A1.79,1.79,0,0,0,161.7,114.68Z"/><path class="cls-8" d="M150.21,161.57c-1.58-1.19-3.83-1.4-5.68-1.94q-3-.87-5.92-1.95c-1.94-.72-3.86-1.52-5.77-2.32s-4-1.56-6-2.4a.37.37,0,0,0-.38.64,47,47,0,0,0,5.44,3.39,59.11,59.11,0,0,0,5.95,2.59q3,1.14,6.08,2.06c1.92.57,4.08,1.45,6.09,1C150.62,162.55,150.58,161.85,150.21,161.57Z"/><path class="cls-8" d="M142.85,156.72a12,12,0,0,0-1.39-.81c-.48-.24-1-.47-1.45-.72-.25-.13-.49-.29-.75-.4l-.75-.31-1.49-.62c-.57-.24-1,.73-.42,1l1.45.72c.5.24,1,.45,1.52.65l1.49.62a11.93,11.93,0,0,0,1.53.51A.35.35,0,0,0,142.85,156.72Z"/><path class="cls-6" d="M99.91,311.13a113.06,113.06,0,0,1-16.5-7.05c-16.06-8.47-30.22-21.28-38.68-37.48-8.35-16-10.63-34.34-9.33-52.17a170.83,170.83,0,0,1,12.47-52A115.3,115.3,0,0,1,60.25,139.5a85.29,85.29,0,0,1,10.42-12.17c7.51,2.31,12.12,8.85,12.42,17.76.76,21.8-11.26,41.88-15.76,62.73-6.85,31.75,2.59,66.57,24.56,90.5C95.34,302.08,99.33,306.32,99.91,311.13Z"/><path class="cls-6" d="M78.19,239.25c0-.17,0-.34-.07-.51-.1-.72-.23-1.48-.41-2.22a4.28,4.28,0,0,0-1.16-2.86,2.57,2.57,0,0,0-.4-.34.94.94,0,0,0-.09-.12A3.77,3.77,0,0,0,73.24,232,4.24,4.24,0,0,0,70,233.84a7.12,7.12,0,0,0-1.1,3.26,21,21,0,0,0-.3,3.54,6.33,6.33,0,0,0,3,5.63,4.32,4.32,0,0,0,5.8-1.33C78.53,243.29,78.41,241.12,78.19,239.25Z"/><path class="cls-6" d="M76.57,251.34a1.45,1.45,0,0,0-.3-.56l-.15-.18,0,0a1.3,1.3,0,0,0-2.25,0l0,0,0,0a1.21,1.21,0,0,0-.34.53,1.31,1.31,0,0,0-.15.64,1.26,1.26,0,0,0,.15.64,1.19,1.19,0,0,0,.34.54,1.31,1.31,0,0,0,.53.34,1.2,1.2,0,0,0,.64.14l.45-.06a1.63,1.63,0,0,0,.73-.42l.26-.34a1.65,1.65,0,0,0,.22-.84C76.6,251.64,76.58,251.49,76.57,251.34Z"/><path class="cls-6" d="M82.21,251.12a1.38,1.38,0,0,0-.48-.48,1.32,1.32,0,0,0-2,1.14,1.32,1.32,0,0,0,.18.67l.09.16a1.21,1.21,0,0,0,2.09,0l.1-.16a1.56,1.56,0,0,0,.18-.67A1.51,1.51,0,0,0,82.21,251.12Z"/><path class="cls-6" d="M270,343.06a28.76,28.76,0,0,1-16.17,8.53c-12.58,2.21-25.53-3.09-35.52-10.47A65.73,65.73,0,0,1,195.6,310a1.69,1.69,0,0,0-2.24-.83,1.73,1.73,0,0,0-.84,2.24c.11.33.24.64.35,1-1.55.48-3.07,1.14-4.63,1.6a49.21,49.21,0,0,1-6,1.42,48.51,48.51,0,0,1-6.36.7,21.08,21.08,0,0,1-2.38,0l-.09-1.1a32.2,32.2,0,0,1,23.17-6.47,32.4,32.4,0,0,0,6.58.52,7.08,7.08,0,0,0,4.69-2.18c5.08,10.26,15.79,16.88,26.94,18.8a54.54,54.54,0,0,0,19.15-.5c6.07-1.1,13.41-2.5,18.44,2.17S273.83,338.92,270,343.06Z"/><path class="cls-5" d="M238.9,324.91a2.79,2.79,0,0,0-4.14.35,38.74,38.74,0,0,0-3,4.6c-1,1.54-1.94,3.08-2.89,4.63-2.22,3.62-4.51,7.2-6.44,11a1.29,1.29,0,0,0,2.22,1.3l.31-.42a1.55,1.55,0,0,0,2.16.87,4.93,4.93,0,0,0,1.68-1.8c.54-.77,1.07-1.56,1.59-2.34q1.41-2.13,2.73-4.3,2.76-4.51,5.15-9.23C239,328.16,240.23,326.34,238.9,324.91Z"/><path class="cls-5" d="M248.56,325.43c-1.43-1.41-3.44-.59-4.33,1-1,1.77-1.7,3.77-2.52,5.63s-1.77,4-2.66,6-1.9,4.27-2.82,6.42c-.47,1.1-.95,2.21-1.42,3.32a11,11,0,0,0-1.11,3.46,1.13,1.13,0,0,0,1.19,1.16,1.54,1.54,0,0,0,2.73,0,196.18,196.18,0,0,0,11-22C249.31,328.8,250.05,326.89,248.56,325.43Z"/><path class="cls-5" d="M275.86,330.65a7.76,7.76,0,0,0-4.66-5.4,12.22,12.22,0,0,0-4.91-2.29c-3.84-.82-7.72,0-11.48.9a1,1,0,0,0-1.33.56c-2.93,6.84-5.19,14-7.67,21a53.91,53.91,0,0,0-1.82,5.23,2.61,2.61,0,0,0,1.89,3.38,14.11,14.11,0,0,0,4.35,0,29.59,29.59,0,0,0,4.17-.73,30,30,0,0,0,14.47-8.62c.52-.57,1-1.18,1.56-1.84a1.48,1.48,0,0,0,1.77-.33,9,9,0,0,0,1.85-3C275.55,336.8,276.58,333.84,275.86,330.65Z"/><path class="cls-8" d="M141.06,185.53a41.06,41.06,0,0,0-1.42-5.81,1.6,1.6,0,0,0-1.42-1.14,2.39,2.39,0,0,0-.3-.57,1.38,1.38,0,0,0-2.48.32,5.54,5.54,0,0,0,.06,2.62c.11.89.21,1.79.29,2.68a31.35,31.35,0,0,1,.1,4.94,14.91,14.91,0,0,1-2.71,8,8.43,8.43,0,0,1-6,3.53A7.3,7.3,0,0,1,121,197.8a.77.77,0,0,0-.43-.27c-.16-.25-.32-.51-.46-.78a1.07,1.07,0,0,0-1.94.82,10.08,10.08,0,0,0,2.55,4.25,1.47,1.47,0,0,0,.18,2.09c2.55,2.48,5.47,5,9.24,5.09,3.37.05,5.92-2.24,7.6-4.95a32.25,32.25,0,0,0,4-9.59A14,14,0,0,0,141.06,185.53Z"/><path class="cls-8" d="M166.15,193.28a1.41,1.41,0,0,0-1.13-1.47,1.79,1.79,0,0,0-.76-.87,1.3,1.3,0,0,0-1.75.46,2.73,2.73,0,0,0-.19,2,1.55,1.55,0,0,0-.65,1.67,3.2,3.2,0,0,1-2.9,3.74c-2.39.25-4.47-1.38-5.75-3.24a23.24,23.24,0,0,1-3.07-7c-.76-2.74-.7-5.54-1.21-8.31a.55.55,0,0,0-1-.21,1.13,1.13,0,0,0-1.82.42c-.06.14-.11.28-.16.43a3.76,3.76,0,0,0-.43-1.62,1,1,0,0,0-.49-.44c0-.09,0-.18,0-.26a1.06,1.06,0,0,0-2.08-.28,15.33,15.33,0,0,0-.47,1.71.62.62,0,0,0-1,.5q.19,2.8.46,5.58c0,.33,0,.66,0,1a34.93,34.93,0,0,0,.8,7.83c-.12.84-.25,1.68-.44,2.51-.28,1.28-.65,2.55-1,3.81-.19.61-.41,1.2-.62,1.8a7.42,7.42,0,0,0-2.58,3.39,1.45,1.45,0,0,0,2.41,1.4l2.2-2.7a4.12,4.12,0,0,1,3.89.05l.64.43a4.22,4.22,0,0,1,.76.86h0l.22.29a1.17,1.17,0,0,0,1.55.28l.77.35h0l.33.15a1.38,1.38,0,0,0,1.65-.81,1.42,1.42,0,0,0-.57-1.74,16.84,16.84,0,0,1-5.44-7.6c0-1.2-.08-2.4-.14-3.6a31.75,31.75,0,0,0,2.15,6A12.56,12.56,0,0,0,154,206c.57,1.08,1.95,1.29,3.26,1.19a5.94,5.94,0,0,0,5.49-1.65,8.39,8.39,0,0,0,1.49-2.37,8.6,8.6,0,0,0,1.41-5.74A28,28,0,0,0,166.15,193.28Z"/><path class="cls-8" d="M173.32,280.2c.1-1.61.18-3.23.22-4.85a1.46,1.46,0,0,0-1.29-1.55c-.12-1.32-.28-2.64-.48-3.95-.28-1.8-3.27-1.38-3.17.43.27,5.08.55,10.18.66,15.28a118.12,118.12,0,0,1-1.51,12.88c-.6,3.61-1.25,7.26-2.11,10.83a29.92,29.92,0,0,1-4.15,7.65c-1.53,2-3.66,3.85-6.26,4.12a7.11,7.11,0,0,1-1.13,0c-1.93-.85-3.9-1.61-5.88-2.32-.48-.32-.95-.65-1.4-1-2.56-1.85-5-3.82-8-4.88a22.26,22.26,0,0,0-8.47-1c-3.28.18-6.52.76-9.79,1.09s-6.57.6-9.77-.32a1.18,1.18,0,0,0-.77,2.23,1,1,0,0,0,.62.49A86.39,86.39,0,0,0,136,318.54q3.9.85,7.71,2.06a1.45,1.45,0,0,0,.05.58,10,10,0,0,0,4,5.33,11.71,11.71,0,0,0,2.14,2.08,9.35,9.35,0,0,0,2.76,1.64,8.79,8.79,0,0,0,3.49.56,11.64,11.64,0,0,0,9-3.82c3-3.35,4.14-7.88,5.09-12.14a121.2,121.2,0,0,0,2.36-15.72c.55-6,.78-12,1-17.95A1.45,1.45,0,0,0,173.32,280.2Z"/><path class="cls-8" d="M266.48,251.3a1.18,1.18,0,0,0-.37-1c0-.38,0-.76,0-1.14a1.47,1.47,0,0,0-2.13-1.34,1.43,1.43,0,0,0-1.57,1.33l-.54,5.35c-2.47,7.75-5,15.52-9,22.64-2,3.52-4.28,7.21-7.32,9.92a6.25,6.25,0,0,1-4.94,1.86,7.61,7.61,0,0,1-4.35-2.57,12.3,12.3,0,0,1-2.17-3.4,6.87,6.87,0,0,0,.09-2.59,1.12,1.12,0,0,0-1-.87,23.85,23.85,0,0,0-1.93-6.52,1.66,1.66,0,0,0-1.95-1.11,1.61,1.61,0,0,0-1.11,2c.76,2.28,1.25,4.72,1.93,7.07a7,7,0,0,1-.22,1.57c-.74,2.79-3.55,4.66-5.66,6.4q-3.75,3.07-7.63,6a66,66,0,0,0-7.8,6.21c-.58.58,0,1.84.86,1.48.62-.26,1.26-.51,1.88-.79a1.2,1.2,0,0,0,1.12.14c5.27-2.06,10.53-4.44,14.76-8.28a23.78,23.78,0,0,0,4.77-5.9c.11-.2.22-.41.34-.61a11.09,11.09,0,0,1,1.14,1.85,5.11,5.11,0,0,0,.86,1.07,11.8,11.8,0,0,0,16.4,7.3c3.19-1.54,5.46-4.52,7.18-7.52a42.93,42.93,0,0,0,4.34-10.81,46,46,0,0,0,.94-4.76,48.46,48.46,0,0,0,1.4-5.29,43.48,43.48,0,0,0,.86-11.76A57.66,57.66,0,0,0,266.48,251.3Z"/><path class="cls-9" d="M176.88,182.59a49,49,0,0,0-4.38-3.5,55.54,55.54,0,0,0-10.09-5.67c-2.92-1.28-6.27-2.52-9.49-1.69s-5.41,3.32-6.72,6.27a24.5,24.5,0,0,0-1.77,9.69,36.47,36.47,0,0,0,1.41,10.65c1,3.47,2.55,6.85,5.47,9.13a9.49,9.49,0,0,0,8.92,1.66,10.79,10.79,0,0,0,6.54-6.64,13.37,13.37,0,0,0,.71-4.86,10.49,10.49,0,0,0-.27-2.44,13.33,13.33,0,0,0-1.05-2.19,1.2,1.2,0,0,0-2.27.69c.13.79,0,1.57.09,2.37a16.89,16.89,0,0,1,.15,2.25,9.55,9.55,0,0,1-1,4.09,6.74,6.74,0,0,1-6.62,3.79c-5.89-.82-7.76-8.49-8.45-13.35a33.53,33.53,0,0,1-.07-9,13.56,13.56,0,0,1,2.75-7.16c1.72-2,4.18-2.37,6.66-1.76a36.07,36.07,0,0,1,7.78,3.25,61.42,61.42,0,0,1,7.37,4.56,65.21,65.21,0,0,1,6.88,5.38c.88.82,2.32-.3,1.47-1.24A51.51,51.51,0,0,0,176.88,182.59Z"/><path class="cls-9" d="M137.27,172.49a15.57,15.57,0,0,0-9.07-3.89A26.48,26.48,0,0,0,117.36,170a78.52,78.52,0,0,0-12,4.94,1,1,0,0,0,.58,1.91c4.27-.63,8.18-2.71,12.27-4a23.24,23.24,0,0,1,10.26-1.08,11.58,11.58,0,0,1,7.15,3.61c2.28,2.65,3,6.32,3.76,9.65,1.23,5.75,2.07,12.63-1.49,17.77-3,4.37-9,6.87-13.45,3a11,11,0,0,1-3.56-7.41,15.61,15.61,0,0,1,.35-4.67c.34-1.57,1-3,1.29-4.61s-1.88-2.12-2.69-1a14.64,14.64,0,0,0-2.13,6.11,17.81,17.81,0,0,0,0,6.05,13.66,13.66,0,0,0,6.27,9.34c6.16,3.54,13.44.22,17-5.41,4-6.29,3-14.21,1.34-21.08C141.44,179.35,140.27,175.29,137.27,172.49Z"/><path class="cls-9" d="M274.4,325.11c-5.27-4.84-12.55-4.42-19.11-3.26A81.16,81.16,0,0,1,245,323.28a45.48,45.48,0,0,1-9.75-.57,36.71,36.71,0,0,1-17.61-7.92,31.46,31.46,0,0,1-7.79-9.84c1.87-.12,3.85-1.37,5.26-2.29,2.49-1.64,4.93-3.36,7.38-5s4.78-3.14,7-4.87a13.9,13.9,0,0,0,2.86-2.77c.15.38.29.77.45,1.15A18.41,18.41,0,0,0,236.5,297c2.92,3,7.1,4.82,11.28,3.68s7.24-4.44,9.74-7.81a56.54,56.54,0,0,0,5.64-9.43,58.26,58.26,0,0,0,5.15-32.56c-.42-3.11-1.25-6.94-4.2-8.64-3.87-2.23-7.61,1.14-10.42,3.54a57.13,57.13,0,0,0-6.23,6.12c.09-3.24,0-6.48-.21-9.72a106.57,106.57,0,0,0-3.31-19.9c.38,0,.77,0,1.16,0,.54,0,1.08,0,1.62.11l.85.12a1.89,1.89,0,0,0,.79-.09h0a8.06,8.06,0,0,0,1.77,0,.81.81,0,0,0,.49-1.31,4.52,4.52,0,0,0-1.76-1.05h0l-.13-.1a1.93,1.93,0,0,0-.9-.33,6,6,0,0,0-.85-.11,11.58,11.58,0,0,0-2,0,6.34,6.34,0,0,0-1.67.33c-.16-.55-.33-1.09-.5-1.63l.81-.3c.87-.29,1.73-.54,2.64-.79s2-.51,3-.71l1.47-.29a10,10,0,0,0,1.6-.52c1.38-.48.9-2.64-.46-2.74a8,8,0,0,0-1.89,0c-.49.07-1,.16-1.47.26q-1.51.31-3,.75c-1.07.32-2.11.67-3.14,1.08l-.54.22c-.15-.46-.32-.92-.48-1.38.36-.25.71-.51,1.08-.75l.1-.06.09-.05.53-.33.87-.53.88-.51a2.64,2.64,0,0,0,.86-.66l.07-.12c-.07.08,0,.07.09,0,.58-.35,1.4-.92,1.47-1.63a.72.72,0,0,0-.31-.68c-.68-.48-1.7-.11-2.47.18a2.19,2.19,0,0,0-.89.21l-.75.41q-.79.44-1.56.93c-.38.25-.75.51-1.11.77-.43-1.1-.86-2.21-1.32-3.3a104.53,104.53,0,0,0-8.28-15.7q-2.43-3.8-5.19-7.36a46.19,46.19,0,0,0-3.94-4.65c.47,0,.94-.1,1.38-.17a16.4,16.4,0,0,0,7.4-3.34,18.17,18.17,0,0,0,5.47-7.15l1.77,1.9c.64.69,1.3,1.36,2,2a4.64,4.64,0,0,0,1.39,1.11,1.51,1.51,0,0,0,1.66-.26c.94-1-.21-2.26-.89-3s-1.29-1.36-2-2c-.94-.92-1.88-1.87-2.88-2.74a29,29,0,0,0,.68-3.1l.6.29c.71.37,1.44.71,2.16,1l2.23,1.07a6.15,6.15,0,0,0,2.53.86,1.46,1.46,0,0,0,1.38-.76,1.4,1.4,0,0,0-.16-1.55,6.94,6.94,0,0,0-2.54-1.6c-.72-.35-1.45-.68-2.18-1s-1.48-.7-2.24-1c-.45-.2-.93-.44-1.41-.63,0-.56.06-1.12.08-1.68a.7.7,0,0,0,.14,0c.09,0,.35,0,.12,0a4.44,4.44,0,0,0,1.21,0l.39,0h.88c.9,0,1.8,0,2.71.06a1.56,1.56,0,0,0,1.3-.61,1,1,0,0,0,.18-.8,1.47,1.47,0,0,0-.91-1.08,5,5,0,0,0-.85-.2,9.8,9.8,0,0,0-3-.08,9.65,9.65,0,0,0-1.3.26,4.62,4.62,0,0,0-.6.19,1.19,1.19,0,0,0-.22.12l0,0a88.2,88.2,0,0,0-.8-9.89,151.17,151.17,0,0,1-1.36-17.79q0-4.47.24-8.94c.1-1.55.24-3.1.37-4.65a21.64,21.64,0,0,0,.15-2.88c.2-.63.4-1.26.61-1.86q1-2.83,2-5.69l2-5.7c.55-1.58,1.35-3.32.89-5-1.1-4-6-2-8.58-1.15L222.07,96a1.07,1.07,0,0,0-.4.24l-.93-1.13a84.86,84.86,0,0,0-7.34-7.59,99.91,99.91,0,0,0-49.93-24.59c-2.41-.42-4.85-.75-7.29-1a46.38,46.38,0,0,0-3.6-5.46l-4-5.7-8.22-11.7a1.66,1.66,0,0,0-2.34-.2,96.36,96.36,0,0,0-9.34,11.6c-1.38,2-2.68,4.1-3.89,6.22-.63,1.1-1.24,2.22-1.83,3.35a8.13,8.13,0,0,0-1.14,2.86c-.73.39-1.47.78-2.19,1.22-1.89,1.12-3.75,2.29-5.6,3.47q-5.56,3.57-11,7.38A195.56,195.56,0,0,0,85.58,88.6a52.48,52.48,0,0,0-4.93,5c-.24-.37-.49-.73-.74-1.09-.39-.56-.81-1.1-1.21-1.65a5.68,5.68,0,0,0-1.62-1.69,1.43,1.43,0,0,0-1.54,0,1.36,1.36,0,0,0-.63,1.39c.35,1.44,1.49,2.58,2.38,3.73.4.51.83,1,1.26,1.51l.2.23A30.29,30.29,0,0,0,76.82,99c-.45-.27-.9-.51-1.34-.79s-.91-.59-1.35-.91l-.72-.49a2,2,0,0,0-1-.37l-.53-.2a1.62,1.62,0,0,0-.43-.12.54.54,0,0,0-.31,0l-.13,0a.71.71,0,0,0-.55.54,1.25,1.25,0,0,1,0,.18.81.81,0,0,0,0,.31,1.66,1.66,0,0,0,.19.46,4.13,4.13,0,0,0,.33.52,2.09,2.09,0,0,0,.75,1c.22.19.45.36.69.53a17.27,17.27,0,0,0,1.48.91,15.55,15.55,0,0,0,1.74.85,20,20,0,0,0-.67,1.88c-.19.64-.35,1.28-.48,1.93-.16,0-.33,0-.5,0s-.61.05-.92.06l-.28,0a1.46,1.46,0,0,0-.74.3,2.54,2.54,0,0,0-.49.44.92.92,0,0,0,0,1.11,2.12,2.12,0,0,0,.53.46,2,2,0,0,0,1,.27c.11,0,.22,0,.33,0a2.87,2.87,0,0,0,.6,0h.06A25.42,25.42,0,0,0,76,119.21a59.55,59.55,0,0,0-4.88,3.65c-13.62,11.49-22.54,27.68-28.62,44.2-6.33,17.21-10.46,35.67-10.83,54-.38,18.59,3.46,37.24,13.53,53.07.67,1.07,1.38,2.11,2.1,3.14a9.18,9.18,0,0,0-.85.66c-.16.14-.32.29-.46.44a1.62,1.62,0,0,0-.46.61,1.18,1.18,0,0,0,0,.2,2.45,2.45,0,0,0-.47,1.64.55.55,0,0,0,.75.4,3.15,3.15,0,0,0,1.06-.82.32.32,0,0,0,.07-.06h0a1.42,1.42,0,0,0,.57-.46c.1-.13.2-.25.31-.37s.44-.43.66-.63c.51.69,1,1.37,1.56,2l-.37.42c-.3.35-.56.74-.83,1.11-.14.2-.27.42-.4.62l-.18.3a1.68,1.68,0,0,0-.21.37,3,3,0,0,0-.09.41c0,.19,0-.07,0-.07a1.16,1.16,0,0,0-.06.15,2,2,0,0,0-.17.52,2.13,2.13,0,0,0,.14.9.82.82,0,0,0,.87.46,1.9,1.9,0,0,0,.88-.36,3.07,3.07,0,0,0,.38-.42l.12-.13c-.12.14-.13.16,0,.08s.46-.55.58-.74.26-.39.37-.59c.19-.35.39-.7.57-1.06l1.13,1.32c-.07.31-.12.63-.16.95-.1.75-.16,1.5-.22,2.25s-.13,1.54-.17,2.32c0,.41-.06.82-.05,1.23a2.26,2.26,0,0,0,.18,1,2.37,2.37,0,0,0,.61.69,1.29,1.29,0,0,0,1.51,0l.21-.13a1.05,1.05,0,0,0,.31-.39,2.26,2.26,0,0,0,.32-1c.05-.36.06-.73.08-1.1.06-.72.09-1.45.12-2.18,0-.18,0-.35,0-.53a103.23,103.23,0,0,0,32,22.54,129.15,129.15,0,0,0,26.41,8.64c4.57,1,9.18,1.77,13.81,2.34a97.67,97.67,0,0,0,14,1,1.56,1.56,0,0,0,.93-.29c.46,1,.95,2,1.47,2.89a20.61,20.61,0,0,0,5.53,6.57c4.45,3.3,10.23,3.93,14.87.65,4.15-2.93,6-7.79,7.16-12.56a12.26,12.26,0,0,0,2.77.19,53.87,53.87,0,0,0,7.17-.58,52.27,52.27,0,0,0,7.19-1.63,29.08,29.08,0,0,0,5.18-1.91c.14.35.28.7.43,1.05a68.28,68.28,0,0,0,26.39,30.44c11.16,6.93,25,11,38,7a30.13,30.13,0,0,0,15.69-11.13,17.42,17.42,0,0,0,3.48-9A10.62,10.62,0,0,0,274.4,325.11ZM270,343.05a28.68,28.68,0,0,1-16.17,8.54c-12.58,2.22-25.53-3.09-35.51-10.47A65.57,65.57,0,0,1,195.6,310a1.7,1.7,0,0,0-2.25-.83,1.73,1.73,0,0,0-.83,2.24c.11.33.24.64.35,1-1.56.48-3.08,1.13-4.62,1.6a51.79,51.79,0,0,1-12.39,2.12,12.89,12.89,0,0,1-3.52-.12c1-4.46,1.83-8.95,2.52-13.46,1.57-10.29,2.11-21-.7-31.16-1.16-4.17-2.82-9.13-7-11.13-4.85-2.3-9.43,1.51-12.05,5.33a40.12,40.12,0,0,0-6.92,20,23.67,23.67,0,0,0,0,3.67c.12,1.19.48,2.38.72,3.56.16.82,1.5.84,1.51-.05,0-1.22.24-2.38.35-3.59s.17-2.43.3-3.64a41.05,41.05,0,0,1,1.33-6.78A34.91,34.91,0,0,1,158.75,266c1.26-1.52,3.09-3.17,5.19-3.21a5.15,5.15,0,0,1,4.08,2.38c2.49,3.26,3.37,7.93,4,11.88,1.54,9.25.61,18.72-1,27.9-.63,3.66-1.31,7.34-2.13,11a1.08,1.08,0,0,0-.21.88c-.15.64-.29,1.27-.45,1.9-1.08,4.25-2.93,9-7.14,11-3.67,1.77-7.81.25-10.65-2.35a19,19,0,0,1-4.08-5.73c-1.11-2.24-1.84-4.64-3-6.86-.76-1.44-3.2-.84-2.83.87a25.36,25.36,0,0,0,.88,3.11c-2.1-.22-4.2-.38-6.3-.55-17.9-1.46-35.82-5.67-51.78-14.09S53.19,282.8,44.73,266.6c-8.34-16-10.64-34.34-9.33-52.17a170.47,170.47,0,0,1,12.47-52,116.65,116.65,0,0,1,12.37-22.9,87.51,87.51,0,0,1,16.9-17.85c.16.33.34.65.51,1a44.73,44.73,0,0,0,6.56,8.73,62.14,62.14,0,0,0,8.42,7.8c1.45,1.05,3.36-1,2.13-2.34-1.42-1.54-3.07-2.87-4.59-4.31s-2.84-2.74-4.16-4.2a37.25,37.25,0,0,1-6.4-9.29,21.83,21.83,0,0,1-2.13-11.23,1.27,1.27,0,0,0,.57-1.09,1.17,1.17,0,0,0-.31-.77,18.23,18.23,0,0,1,1.45-4.41c2.48-5.25,7-9.35,11.4-13,5.66-4.67,11.57-9.06,17.58-13.27q4.56-3.19,9.23-6.22l4.86-3.12c1.56-1,3-2.12,4.48-3.21a1,1,0,0,0-.48-1.69c.48-.91,1-1.82,1.49-2.71,1.16-2,2.39-4,3.7-5.89A90.56,90.56,0,0,1,139,42.8l7,10c1.37,1.94,2.76,3.88,4.14,5.82.72,1,1.42,2.07,2.17,3.08-.92,0-1.84-.08-2.76-.08a18.23,18.23,0,0,0-4.78.41c-1,.3-1.62,2.1-.24,2.43a30.64,30.64,0,0,0,5.33.5c1.68.1,3.36.17,5,.31A93.75,93.75,0,0,1,165,66.67a96.77,96.77,0,0,1,33.65,13.71A98.07,98.07,0,0,1,212.94,91.6c2.2,2.11,4.33,4.3,6.35,6.59,1,1.14,2,2.3,3,3.48a18.36,18.36,0,0,0,3.11,3.24c.77.58,1.53-.33,1.3-1.09A15.83,15.83,0,0,0,224,99.2c-.09-.13-.19-.25-.28-.37l9.51-3c1.51-.47,3-1,4.54-1.41.23,0,1.09-.33,1.32-.13s0,.91-.06,1.19c-.94,3.24-2.24,6.4-3.35,9.58-.53,1.53-1.05,3.05-1.58,4.57a23.73,23.73,0,0,0-1.51,5,1.35,1.35,0,0,0,.78,1.34c-.12,1.16-.22,2.33-.3,3.49q-.33,4.65-.33,9.32a144.54,144.54,0,0,0,1.09,16.89c.64,5.35,1.36,10.77.55,16.13-.66,4.4-2.45,8.91-6,11.81a12.85,12.85,0,0,1-5.7,2.72,10.88,10.88,0,0,1-3.12.16,31.54,31.54,0,0,0-3.2-.44c-1,0-2,1.26-1.14,2.16A5.85,5.85,0,0,0,218,179.7a36.16,36.16,0,0,0,2.76,3.78c1,1.3,2,2.63,3,4q2.81,3.81,5.24,7.88A105.77,105.77,0,0,1,244,244.63c.14,2.85.15,5.72.05,8.58-.05,1.53-.13,3.06-.22,4.59A15.53,15.53,0,0,0,244,262a1.07,1.07,0,0,0,2,.2,13.77,13.77,0,0,0,1.1-5c0-.17,0-.34,0-.51a99.44,99.44,0,0,1,8.88-8.78c1.36-1.13,3.07-2.92,4.91-3.19,1.39-.21,2.31.84,2.88,2,1.3,2.64,1.41,5.94,1.56,8.83a53.54,53.54,0,0,1-.4,9.64,55.77,55.77,0,0,1-5.76,18.46,51.57,51.57,0,0,1-5.23,8.15c-2.09,2.67-5,5.66-8.63,5.78-3,.1-5.67-1.84-7.43-4.13-2.46-3.22-3-7.21-4.36-10.92-.62-1.75-3.26-.79-3,.91a28.16,28.16,0,0,0,.74,3.37,15.56,15.56,0,0,1-4,4.08c-2.09,1.46-4.24,2.84-6.35,4.26l-6.91,4.62a18.85,18.85,0,0,1-2.9,1.65,25.68,25.68,0,0,1-2.66.64c-.52-1.26-1-2.56-1.38-3.88a1,1,0,0,0-1.87.3,20.84,20.84,0,0,0,1,4.68c4.14,12.35,16,20.35,28.47,22.49a54.54,54.54,0,0,0,19.15-.5c6.07-1.11,13.41-2.51,18.43,2.16S273.83,338.92,270,343.05Z"/><path class="cls-9" d="M70.48,96.8s0,0,0,0S70.51,96.7,70.48,96.8Z"/><path class="cls-9" d="M54.5,292.61l0,0Z"/><path class="cls-9" d="M183.58,127a6.53,6.53,0,0,0-5.9-.63,5.77,5.77,0,0,0-3.41,3.46,5.86,5.86,0,0,0-.74,2.65,6.24,6.24,0,0,0,3,5.53,6.72,6.72,0,0,0,6.52,0,6.52,6.52,0,0,0,3.26-5.48A6.34,6.34,0,0,0,183.58,127Z"/><path class="cls-9" d="M132.5,116.88a6.75,6.75,0,0,0,6.51,0,6.52,6.52,0,0,0,3.26-5.48,6.34,6.34,0,0,0-2.68-5.54,6.55,6.55,0,0,0-5.91-.64,5.8,5.8,0,0,0-3.41,3.46,5.9,5.9,0,0,0-.74,2.65A6.25,6.25,0,0,0,132.5,116.88Z"/><path class="cls-9" d="M147,131.4a1,1,0,0,0,.34.25,1.79,1.79,0,0,0,1.18.17c.28,0,.57-.07.85-.12.61-.1,1.21-.22,1.81-.37a8.14,8.14,0,0,0,1.9-.74c.12-.07.25-.12.37-.18a9.87,9.87,0,0,0,1,2.18,7.8,7.8,0,0,0,3.29,3.22,1.25,1.25,0,0,0,1.43-.55,1.3,1.3,0,0,0-.16-1.53,15.54,15.54,0,0,1-2.27-2.52,8,8,0,0,1-1.07-3,7.59,7.59,0,0,1,.34-3.34,8.11,8.11,0,0,1,.31-.82,7.49,7.49,0,0,0,3.79.3,1.61,1.61,0,0,0,1.33-1,1.43,1.43,0,0,0-.12-1.11,1.49,1.49,0,0,0-.84-.68l-6.94-3.05a1.38,1.38,0,0,0-1.5.47,1.41,1.41,0,0,0-.15,1.57,8.57,8.57,0,0,0,2.25,2.4,9.92,9.92,0,0,0-.44.94,9.76,9.76,0,0,0-.63,4.44v.06l-.3.07-.24,0h-.06c-.64.09-1.27.17-1.9.3s-1.14.21-1.71.29h-.25l-.55.05a1.56,1.56,0,0,0-.91.39.82.82,0,0,0-.29.32l-.07.17a1.14,1.14,0,0,0,.15,1.27C146.76,131,146.79,131.09,147,131.4Z"/></g></g></svg>